<?xml version="1.0" standalone="no"?>
<!DOCTYPE svg PUBLIC "-//W3C//DTD SVG 20010904//EN"
 "http://www.w3.org/TR/2001/REC-SVG-20010904/DTD/svg10.dtd">
<svg version="1.0" xmlns="http://www.w3.org/2000/svg"
 width="512.000000pt" height="512.000000pt" viewBox="0 0 512.000000 512.000000"
 preserveAspectRatio="xMidYMid meet">
<metadata>
Created by potrace 1.14, written by Peter Selinger 2001-2017
</metadata>
<g transform="translate(0.000000,512.000000) scale(0.100000,-0.100000)"
fill="#000000" stroke="none">
<path d="M1383 4840 c-122 -40 -223 -148 -317 -337 -31 -63 -104 -248 -111
-283 -2 -8 -10 -35 -18 -60 -18 -52 -83 -308 -91 -360 -3 -19 -10 -51 -14 -70
-5 -19 -9 -38 -10 -43 0 -4 -5 -31 -11 -60 -6 -28 -13 -65 -16 -82 -13 -76
-35 -202 -40 -225 -2 -13 -7 -42 -10 -65 -3 -22 -11 -67 -16 -100 -6 -33 -13
-76 -15 -95 -2 -19 -6 -45 -9 -58 -3 -12 -8 -44 -10 -70 -3 -26 -8 -58 -10
-72 -3 -14 -7 -43 -11 -65 -3 -22 -7 -50 -9 -61 -2 -12 -7 -48 -10 -80 -4 -33
-9 -68 -12 -79 -2 -11 -6 -40 -8 -65 -2 -25 -7 -56 -10 -70 -3 -14 -7 -53 -11
-88 -3 -35 -7 -71 -9 -81 -2 -10 -6 -51 -10 -92 -3 -41 -9 -99 -12 -129 -8
-92 -11 -541 -2 -579 4 -20 10 -55 13 -78 13 -98 40 -196 77 -280 11 -24 19
-47 19 -52 0 -23 110 -172 178 -241 69 -71 278 -230 301 -230 5 0 11 -4 13 -8
5 -13 217 -128 313 -170 127 -55 209 -81 327 -102 95 -17 237 -20 293 -6 182
45 281 136 334 306 19 63 34 146 33 183 0 9 1 17 3 17 4 0 193 -133 212 -150
7 -5 15 -10 17 -10 3 0 31 -16 62 -36 160 -102 392 -199 551 -229 76 -14 258
-15 312 -2 279 71 520 233 729 490 127 157 226 339 248 459 17 98 21 134 17
199 -8 144 -64 243 -237 414 -129 128 -255 220 -416 303 -166 87 -437 190
-595 228 -5 1 -48 12 -95 24 -47 12 -92 23 -100 25 -33 7 -176 37 -195 41 -11
3 -36 6 -55 9 -19 2 -35 4 -35 5 0 1 -10 3 -22 4 -38 4 -37 13 4 43 21 15 47
35 58 45 11 9 67 55 125 103 233 193 463 417 600 585 25 30 47 57 51 60 33 28
163 256 197 345 20 51 39 159 36 200 -9 114 -122 267 -292 396 -240 183 -521
264 -817 236 -66 -6 -85 -9 -145 -22 -14 -3 -34 -7 -45 -9 -81 -17 -380 -119
-425 -146 -8 -4 -42 -22 -75 -39 -52 -27 -151 -94 -193 -132 -16 -13 -22 -9
-27 23 -8 40 -64 206 -87 257 -69 147 -158 250 -255 296 -70 33 -141 39 -210
15z m189 -579 c58 -27 134 -103 170 -169 l28 -50 -20 -25 c-88 -112 -249 -449
-334 -697 -33 -98 -74 -210 -85 -235 -5 -11 -35 -99 -66 -195 -31 -96 -61
-186 -65 -200 -67 -202 -91 -313 -91 -431 0 -123 43 -233 120 -302 83 -75 184
-91 321 -53 30 8 55 14 56 13 1 -1 14 -38 28 -81 24 -71 97 -230 129 -281 31
-49 113 -170 118 -175 3 -3 30 -34 60 -70 81 -98 230 -245 349 -343 20 -17 21
-25 16 -79 -4 -34 -9 -64 -11 -68 -2 -3 -6 -19 -9 -35 -18 -101 -110 -209
-208 -246 -81 -30 -79 -30 -173 -31 -159 -2 -328 47 -524 150 -93 49 -227 133
-300 189 -108 81 -221 213 -257 299 -42 101 -36 84 -58 164 -28 103 -38 206
-39 373 0 121 9 329 18 377 2 14 6 57 10 95 3 39 7 81 10 95 3 14 7 42 10 63
3 20 7 54 10 75 3 20 8 53 11 72 2 19 7 55 10 80 3 25 7 52 9 60 2 8 7 35 10
60 3 25 11 72 16 105 12 68 15 93 23 150 3 22 7 49 10 60 2 11 7 40 11 65 10
62 13 79 19 98 3 9 7 39 11 66 3 27 8 52 10 55 1 3 6 22 9 41 8 47 14 78 20
98 3 9 8 32 11 50 3 19 15 73 26 120 11 48 22 94 24 103 2 8 10 32 19 52 8 21
15 41 16 45 1 25 50 151 87 226 48 97 85 150 146 209 39 37 117 84 117 70 0
-4 5 -2 11 4 18 18 111 9 161 -16z m1300 -25 c140 -16 321 -91 438 -181 52
-40 171 -168 195 -209 33 -56 41 -124 24 -201 -19 -85 -96 -233 -172 -330 -85
-110 -277 -308 -392 -406 -21 -19 -47 -41 -56 -49 -125 -115 -296 -242 -317
-236 -19 6 -232 19 -300 18 -24 0 -41 2 -39 4 2 3 0 26 -5 52 -11 58 -11 58
-47 277 -17 99 -33 191 -36 205 -3 14 -12 66 -21 115 -22 128 -23 137 -29 165
-15 76 -37 188 -40 205 -2 11 -18 89 -36 173 l-33 153 30 24 c45 37 199 110
301 144 237 78 365 97 535 77z m-1013 -443 c6 -21 12 -47 14 -58 2 -11 6 -27
10 -35 8 -23 26 -101 33 -140 3 -19 14 -73 24 -120 20 -91 41 -192 64 -312 3
-13 7 -41 11 -63 3 -22 7 -47 10 -55 2 -8 6 -31 9 -50 3 -19 8 -45 10 -56 2
-12 7 -39 10 -60 4 -22 8 -46 11 -54 5 -21 18 -110 19 -139 1 -14 -5 -25 -14
-26 -95 -16 -122 -22 -185 -45 -78 -28 -131 -58 -172 -98 -54 -52 -98 -114
-108 -152 0 -3 -7 -22 -14 -43 -7 -21 -14 -66 -16 -100 -2 -34 -3 -68 -4 -74
-2 -20 -76 -16 -119 6 -74 38 -127 110 -149 201 -13 55 1 207 24 270 3 8 7 22
9 31 3 15 55 179 99 314 13 39 39 115 60 170 20 55 46 127 57 160 27 77 101
252 140 330 45 88 140 235 153 235 2 0 9 -17 14 -37z m539 -1318 c3 -3 -4 -8
-16 -12 -12 -3 -22 -8 -22 -12 0 -4 -15 -15 -34 -24 l-34 -16 -4 34 c-2 19 0
36 6 38 15 5 97 -1 104 -8z m-272 -40 c1 -11 6 -39 9 -63 l6 -43 -158 -75
c-87 -41 -171 -82 -187 -91 l-29 -16 7 37 c23 120 103 207 234 252 79 28 114
27 118 -1z m734 -11 c132 -21 424 -96 485 -123 11 -5 62 -26 114 -46 247 -96
470 -254 599 -425 56 -75 74 -121 79 -207 9 -129 -33 -261 -131 -412 -57 -88
-65 -98 -166 -201 -93 -94 -201 -172 -305 -220 -74 -34 -193 -69 -240 -71 -43
-1 -166 9 -195 17 -14 3 -37 8 -53 11 -15 3 -30 9 -33 14 -3 5 -14 9 -25 9
-22 0 -191 80 -280 132 -89 52 -226 150 -226 162 0 18 -14 158 -18 196 -3 19
-7 55 -10 80 -3 25 -8 56 -10 70 -2 14 -7 45 -10 70 -3 25 -7 56 -10 70 -7 41
-16 102 -20 145 -2 22 -6 51 -9 65 -2 14 -8 48 -11 75 -4 28 -9 59 -11 70 -8
52 -14 86 -24 160 -6 44 -13 91 -16 105 -15 76 -15 75 33 100 26 14 102 61
171 106 l124 81 81 -14 c45 -7 98 -16 117 -19z m-689 -271 c0 -5 2 -17 4 -28
1 -11 6 -40 9 -65 3 -25 8 -56 11 -70 6 -33 17 -100 20 -130 2 -14 6 -39 9
-56 3 -17 8 -46 10 -65 3 -19 7 -47 9 -64 3 -16 8 -52 12 -80 3 -27 9 -63 11
-80 3 -16 7 -48 9 -70 3 -22 10 -84 18 -137 10 -75 10 -98 1 -98 -19 0 -224
208 -290 295 -93 124 -182 287 -198 366 -3 13 -10 40 -15 59 -16 51 -14 56 22
71 17 7 102 46 187 86 158 74 169 79 171 66z"/>
</g>
</svg>
